<mxfile host="app.diagrams.net" modified="2022-05-09T13:56:34.329Z" agent="5.0 (Windows NT 10.0; WOW64) AppleWebKit/537.36 (KHTML, like Gecko) Chrome/101.0.4951.54 Safari/537.36" etag="MCshNY_owlp_hLQ2WRB8" version="17.5.0" type="github">
  <diagram id="3JAUHohou9c2lIXwb6Gm" name="Page-1">
    <mxGraphModel dx="1609" dy="519" grid="1" gridSize="10" guides="1" tooltips="1" connect="1" arrows="1" fold="1" page="1" pageScale="1" pageWidth="827" pageHeight="1169" math="0" shadow="0">
      <root>
        <mxCell id="0" />
        <mxCell id="1" parent="0" />
        <mxCell id="UBEClrOXtqQS85tNALs3-4" value="DEM Wrapper - AiiDA plugin" style="rounded=1;whiteSpace=wrap;html=1;verticalAlign=top;fillColor=#d5e8d4;strokeColor=#82b366;" parent="1" vertex="1">
          <mxGeometry x="110" y="320" width="510" height="330" as="geometry" />
        </mxCell>
        <mxCell id="UBEClrOXtqQS85tNALs3-7" style="rounded=0;orthogonalLoop=1;jettySize=auto;html=1;entryX=0.013;entryY=0.114;entryDx=0;entryDy=0;entryPerimeter=0;" parent="1" source="UBEClrOXtqQS85tNALs3-5" target="UBEClrOXtqQS85tNALs3-6" edge="1">
          <mxGeometry relative="1" as="geometry" />
        </mxCell>
        <mxCell id="UBEClrOXtqQS85tNALs3-5" value="Input&#39;" style="rounded=1;whiteSpace=wrap;html=1;" parent="1" vertex="1">
          <mxGeometry x="245" y="425" width="80" height="30" as="geometry" />
        </mxCell>
        <mxCell id="UBEClrOXtqQS85tNALs3-11" style="edgeStyle=none;rounded=0;orthogonalLoop=1;jettySize=auto;html=1;" parent="1" source="UBEClrOXtqQS85tNALs3-6" target="UBEClrOXtqQS85tNALs3-9" edge="1">
          <mxGeometry relative="1" as="geometry" />
        </mxCell>
        <mxCell id="UBEClrOXtqQS85tNALs3-6" value="Aspherix&lt;br&gt;DEM" style="rounded=1;whiteSpace=wrap;html=1;" parent="1" vertex="1">
          <mxGeometry x="325" y="475" width="80" height="70" as="geometry" />
        </mxCell>
        <mxCell id="UBEClrOXtqQS85tNALs3-8" value="Datamodel" style="text;html=1;strokeColor=none;fillColor=none;align=center;verticalAlign=middle;whiteSpace=wrap;rounded=0;" parent="1" vertex="1">
          <mxGeometry x="250" y="360" width="60" height="30" as="geometry" />
        </mxCell>
        <mxCell id="UBEClrOXtqQS85tNALs3-16" style="edgeStyle=none;rounded=0;orthogonalLoop=1;jettySize=auto;html=1;entryX=0;entryY=0.5;entryDx=0;entryDy=0;startArrow=none;startFill=0;" parent="1" source="UBEClrOXtqQS85tNALs3-9" target="UBEClrOXtqQS85tNALs3-15" edge="1">
          <mxGeometry relative="1" as="geometry" />
        </mxCell>
        <mxCell id="UBEClrOXtqQS85tNALs3-9" value="Output&#39;" style="rounded=1;whiteSpace=wrap;html=1;" parent="1" vertex="1">
          <mxGeometry x="415" y="425" width="80" height="30" as="geometry" />
        </mxCell>
        <mxCell id="UBEClrOXtqQS85tNALs3-10" value="Datamodel" style="text;html=1;strokeColor=none;fillColor=none;align=center;verticalAlign=middle;whiteSpace=wrap;rounded=0;" parent="1" vertex="1">
          <mxGeometry x="420" y="360" width="60" height="30" as="geometry" />
        </mxCell>
        <mxCell id="UBEClrOXtqQS85tNALs3-12" value="InputData" style="rounded=1;whiteSpace=wrap;html=1;" parent="1" vertex="1">
          <mxGeometry x="245" y="380" width="80" height="30" as="geometry" />
        </mxCell>
        <mxCell id="qvWup1unoxQv84iyTY0M-2" value="Mappings" style="rounded=0;orthogonalLoop=1;jettySize=auto;html=1;dashed=1;" edge="1" parent="1" source="UBEClrOXtqQS85tNALs3-13" target="qvWup1unoxQv84iyTY0M-1">
          <mxGeometry relative="1" as="geometry" />
        </mxCell>
        <mxCell id="UBEClrOXtqQS85tNALs3-13" value="OutputData" style="rounded=1;whiteSpace=wrap;html=1;" parent="1" vertex="1">
          <mxGeometry x="415" y="380" width="80" height="30" as="geometry" />
        </mxCell>
        <mxCell id="N-FvrxHPBgMHmvB42TJ--35" style="edgeStyle=none;rounded=0;orthogonalLoop=1;jettySize=auto;html=1;startArrow=none;startFill=0;endArrow=block;endFill=1;" parent="1" source="UBEClrOXtqQS85tNALs3-15" target="N-FvrxHPBgMHmvB42TJ--32" edge="1">
          <mxGeometry relative="1" as="geometry">
            <mxPoint x="630" y="441.5566037735849" as="targetPoint" />
          </mxGeometry>
        </mxCell>
        <mxCell id="UBEClrOXtqQS85tNALs3-15" value="Output" style="rounded=1;whiteSpace=wrap;html=1;" parent="1" vertex="1">
          <mxGeometry x="524" y="425" width="80" height="30" as="geometry" />
        </mxCell>
        <mxCell id="UBEClrOXtqQS85tNALs3-17" value="AiiDA DataNode" style="text;html=1;strokeColor=none;fillColor=none;align=center;verticalAlign=middle;whiteSpace=wrap;rounded=0;" parent="1" vertex="1">
          <mxGeometry x="534" y="395" width="60" height="30" as="geometry" />
        </mxCell>
        <mxCell id="UBEClrOXtqQS85tNALs3-19" style="edgeStyle=none;rounded=0;orthogonalLoop=1;jettySize=auto;html=1;entryX=0;entryY=0.5;entryDx=0;entryDy=0;" parent="1" source="UBEClrOXtqQS85tNALs3-18" target="UBEClrOXtqQS85tNALs3-5" edge="1">
          <mxGeometry relative="1" as="geometry" />
        </mxCell>
        <mxCell id="N-FvrxHPBgMHmvB42TJ--2" style="rounded=0;orthogonalLoop=1;jettySize=auto;html=1;entryX=1;entryY=0;entryDx=0;entryDy=15;entryPerimeter=0;endArrow=none;endFill=0;dashed=1;" parent="1" source="UBEClrOXtqQS85tNALs3-18" target="N-FvrxHPBgMHmvB42TJ--1" edge="1">
          <mxGeometry relative="1" as="geometry" />
        </mxCell>
        <mxCell id="UBEClrOXtqQS85tNALs3-18" value="Input" style="rounded=1;whiteSpace=wrap;html=1;" parent="1" vertex="1">
          <mxGeometry x="130" y="425" width="80" height="30" as="geometry" />
        </mxCell>
        <mxCell id="UBEClrOXtqQS85tNALs3-20" value="AiiDA DataNode" style="text;html=1;strokeColor=none;fillColor=none;align=center;verticalAlign=middle;whiteSpace=wrap;rounded=0;" parent="1" vertex="1">
          <mxGeometry x="140" y="395" width="60" height="30" as="geometry" />
        </mxCell>
        <mxCell id="UBEClrOXtqQS85tNALs3-29" style="edgeStyle=none;rounded=0;orthogonalLoop=1;jettySize=auto;html=1;entryX=0.5;entryY=0;entryDx=0;entryDy=0;" parent="1" source="UBEClrOXtqQS85tNALs3-23" target="UBEClrOXtqQS85tNALs3-24" edge="1">
          <mxGeometry relative="1" as="geometry" />
        </mxCell>
        <mxCell id="UBEClrOXtqQS85tNALs3-23" value="Make datamodel for the model&lt;span style=&quot;color: rgba(0 , 0 , 0 , 0) ; font-family: monospace ; font-size: 0px&quot;&gt;%3CmxGraphModel%3E%3Croot%3E%3CmxCell%20id%3D%220%22%2F%3E%3CmxCell%20id%3D%221%22%20parent%3D%220%22%2F%3E%3CmxCell%20id%3D%222%22%20style%3D%22edgeStyle%3Dnone%3Brounded%3D0%3BorthogonalLoop%3D1%3BjettySize%3Dauto%3Bhtml%3D1%3BentryX%3D0.5%3BentryY%3D1%3BentryDx%3D0%3BentryDy%3D0%3B%22%20edge%3D%221%22%20parent%3D%221%22%3E%3CmxGeometry%20relative%3D%221%22%20as%3D%22geometry%22%3E%3CmxPoint%20x%3D%22455%22%20y%3D%22460%22%20as%3D%22sourcePoint%22%2F%3E%3CmxPoint%20x%3D%22455%22%20y%3D%22445%22%20as%3D%22targetPoint%22%2F%3E%3C%2FmxGeometry%3E%3C%2FmxCell%3E%3C%2Froot%3E%3C%2FmxGraphModel%3E&lt;/span&gt;&lt;br&gt;&lt;span style=&quot;color: rgba(0 , 0 , 0 , 0) ; font-family: monospace ; font-size: 0px&quot;&gt;%3CmxGraphModel%3E%3Croot%3E%3CmxCell%20id%3D%220%22%2F%3E%3CmxCell%20id%3D%221%22%20parent%3D%220%22%2F%3E%3CmxCell%20id%3D%222%22%20style%3D%22edgeStyle%3Dnone%3Brounded%3D0%3BorthogonalLoop%3D1%3BjettySize%3Dauto%3Bhtml%3D1%3BentryX%3D0.5%3BentryY%3D1%3BentryDx%3D0%3BentryDy%3D0%3B%22%20edge%3D%221%22%20parent%3D%221%22%3E%3CmxGeometry%20relative%3D%221%22%20as%3D%22geometry%22%3E%3CmxPoint%20x%3D%22455%22%20y%3D%22460%22%20as%3D%22sourcePoint%22%2F%3E%3CmxPoint%20x%3D%22455%22%20y%3D%22445%22%20as%3D%22targetPoint%22%2F%3E%3C%2FmxGeometry%3E%3C%2FmxCell%3E%3C%2Froot%3E%3C%2FmxGraphModel%3E&lt;/span&gt;" style="rounded=1;whiteSpace=wrap;html=1;" parent="1" vertex="1">
          <mxGeometry x="210" y="720" width="120" height="60" as="geometry" />
        </mxCell>
        <mxCell id="UBEClrOXtqQS85tNALs3-30" style="edgeStyle=none;rounded=0;orthogonalLoop=1;jettySize=auto;html=1;entryX=0.5;entryY=0;entryDx=0;entryDy=0;" parent="1" source="UBEClrOXtqQS85tNALs3-24" target="UBEClrOXtqQS85tNALs3-25" edge="1">
          <mxGeometry relative="1" as="geometry" />
        </mxCell>
        <mxCell id="UBEClrOXtqQS85tNALs3-24" value="Create ontology&lt;span style=&quot;color: rgba(0 , 0 , 0 , 0) ; font-family: monospace ; font-size: 0px&quot;&gt;%3CmxGraphModel%3E%3Croot%3E%3CmxCell%20id%3D%220%22%2F%3E%3CmxCell%20id%3D%221%22%20parent%3D%220%22%2F%3E%3CmxCell%20id%3D%222%22%20style%3D%22edgeStyle%3Dnone%3Brounded%3D0%3BorthogonalLoop%3D1%3BjettySize%3Dauto%3Bhtml%3D1%3BentryX%3D0.5%3BentryY%3D1%3BentryDx%3D0%3BentryDy%3D0%3B%22%20edge%3D%221%22%20parent%3D%221%22%3E%3CmxGeometry%20relative%3D%221%22%20as%3D%22geometry%22%3E%3CmxPoint%20x%3D%22455%22%20y%3D%22460%22%20as%3D%22sourcePoint%22%2F%3E%3CmxPoint%20x%3D%22455%22%20y%3D%22445%22%20as%3D%22targetPoint%22%2F%3E%3C%2FmxGeometry%3E%3C%2FmxCell%3E%3C%2Froot%3E%3C%2FmxGraphModel%3E&lt;/span&gt;" style="rounded=1;whiteSpace=wrap;html=1;" parent="1" vertex="1">
          <mxGeometry x="210" y="800" width="120" height="60" as="geometry" />
        </mxCell>
        <mxCell id="UBEClrOXtqQS85tNALs3-25" value="Create mappings&lt;br&gt;=&amp;gt; semantic data representation&lt;br&gt;&lt;span style=&quot;color: rgba(0 , 0 , 0 , 0) ; font-family: monospace ; font-size: 0px&quot;&gt;=&amp;gt;%3CmxGraphModel%3E%3Croot%3E%3CmxCell%20id%3D%220%22%2F%3E%3CmxCell%20id%3D%221%22%20parent%3D%220%22%2F%3E%3CmxCell%20id%3D%222%22%20style%3D%22edgeStyle%3Dnone%3Brounded%3D0%3BorthogonalLoop%3D1%3BjettySize%3Dauto%3Bhtml%3D1%3BentryX%3D0.5%3BentryY%3D1%3BentryDx%3D0%3BentryDy%3D0%3B%22%20edge%3D%221%22%20parent%3D%221%22%3E%3CmxGeometry%20relative%3D%221%22%20as%3D%22geometry%22%3E%3CmxPoint%20x%3D%22455%22%20y%3D%22460%22%20as%3D%22sourcePoint%22%2F%3E%3CmxPoint%20x%3D%22455%22%20y%3D%22445%22%20as%3D%22targetPoint%22%2F%3E%3C%2FmxGeometry%3E%3C%2FmxCell%3E%3C%2Froot%3E%3C%2FmxGraphModel%3E&lt;/span&gt;" style="rounded=1;whiteSpace=wrap;html=1;" parent="1" vertex="1">
          <mxGeometry x="210" y="880" width="120" height="60" as="geometry" />
        </mxCell>
        <mxCell id="UBEClrOXtqQS85tNALs3-31" style="edgeStyle=none;rounded=0;orthogonalLoop=1;jettySize=auto;html=1;" parent="1" source="UBEClrOXtqQS85tNALs3-26" target="UBEClrOXtqQS85tNALs3-27" edge="1">
          <mxGeometry relative="1" as="geometry" />
        </mxCell>
        <mxCell id="UBEClrOXtqQS85tNALs3-26" value="Make datamodel for the model&lt;span style=&quot;color: rgba(0 , 0 , 0 , 0) ; font-family: monospace ; font-size: 0px&quot;&gt;%3CmxGraphModel%3E%3Croot%3E%3CmxCell%20id%3D%220%22%2F%3E%3CmxCell%20id%3D%221%22%20parent%3D%220%22%2F%3E%3CmxCell%20id%3D%222%22%20style%3D%22edgeStyle%3Dnone%3Brounded%3D0%3BorthogonalLoop%3D1%3BjettySize%3Dauto%3Bhtml%3D1%3BentryX%3D0.5%3BentryY%3D1%3BentryDx%3D0%3BentryDy%3D0%3B%22%20edge%3D%221%22%20parent%3D%221%22%3E%3CmxGeometry%20relative%3D%221%22%20as%3D%22geometry%22%3E%3CmxPoint%20x%3D%22455%22%20y%3D%22460%22%20as%3D%22sourcePoint%22%2F%3E%3CmxPoint%20x%3D%22455%22%20y%3D%22445%22%20as%3D%22targetPoint%22%2F%3E%3C%2FmxGeometry%3E%3C%2FmxCell%3E%3C%2Froot%3E%3C%2FmxGraphModel%3E&lt;/span&gt;&lt;br&gt;&lt;span style=&quot;color: rgba(0 , 0 , 0 , 0) ; font-family: monospace ; font-size: 0px&quot;&gt;%3CmxGraphModel%3E%3Croot%3E%3CmxCell%20id%3D%220%22%2F%3E%3CmxCell%20id%3D%221%22%20parent%3D%220%22%2F%3E%3CmxCell%20id%3D%222%22%20style%3D%22edgeStyle%3Dnone%3Brounded%3D0%3BorthogonalLoop%3D1%3BjettySize%3Dauto%3Bhtml%3D1%3BentryX%3D0.5%3BentryY%3D1%3BentryDx%3D0%3BentryDy%3D0%3B%22%20edge%3D%221%22%20parent%3D%221%22%3E%3CmxGeometry%20relative%3D%221%22%20as%3D%22geometry%22%3E%3CmxPoint%20x%3D%22455%22%20y%3D%22460%22%20as%3D%22sourcePoint%22%2F%3E%3CmxPoint%20x%3D%22455%22%20y%3D%22445%22%20as%3D%22targetPoint%22%2F%3E%3C%2FmxGeometry%3E%3C%2FmxCell%3E%3C%2Froot%3E%3C%2FmxGraphModel%3E&lt;/span&gt;" style="rounded=1;whiteSpace=wrap;html=1;" parent="1" vertex="1">
          <mxGeometry x="370" y="720" width="120" height="60" as="geometry" />
        </mxCell>
        <mxCell id="UBEClrOXtqQS85tNALs3-32" style="edgeStyle=none;rounded=0;orthogonalLoop=1;jettySize=auto;html=1;" parent="1" source="UBEClrOXtqQS85tNALs3-27" target="UBEClrOXtqQS85tNALs3-28" edge="1">
          <mxGeometry relative="1" as="geometry" />
        </mxCell>
        <mxCell id="UBEClrOXtqQS85tNALs3-27" value="Create ontology&lt;span style=&quot;color: rgba(0 , 0 , 0 , 0) ; font-family: monospace ; font-size: 0px&quot;&gt;%3CmxGraphModel%3E%3Croot%3E%3CmxCell%20id%3D%220%22%2F%3E%3CmxCell%20id%3D%221%22%20parent%3D%220%22%2F%3E%3CmxCell%20id%3D%222%22%20style%3D%22edgeStyle%3Dnone%3Brounded%3D0%3BorthogonalLoop%3D1%3BjettySize%3Dauto%3Bhtml%3D1%3BentryX%3D0.5%3BentryY%3D1%3BentryDx%3D0%3BentryDy%3D0%3B%22%20edge%3D%221%22%20parent%3D%221%22%3E%3CmxGeometry%20relative%3D%221%22%20as%3D%22geometry%22%3E%3CmxPoint%20x%3D%22455%22%20y%3D%22460%22%20as%3D%22sourcePoint%22%2F%3E%3CmxPoint%20x%3D%22455%22%20y%3D%22445%22%20as%3D%22targetPoint%22%2F%3E%3C%2FmxGeometry%3E%3C%2FmxCell%3E%3C%2Froot%3E%3C%2FmxGraphModel%3E&lt;/span&gt;" style="rounded=1;whiteSpace=wrap;html=1;" parent="1" vertex="1">
          <mxGeometry x="370" y="800" width="120" height="60" as="geometry" />
        </mxCell>
        <mxCell id="UBEClrOXtqQS85tNALs3-28" value="Create mappings&lt;br&gt;=&amp;gt; semantic data representation&lt;br&gt;&lt;span style=&quot;color: rgba(0 , 0 , 0 , 0) ; font-family: monospace ; font-size: 0px&quot;&gt;=&amp;gt;%3CmxGraphModel%3E%3Croot%3E%3CmxCell%20id%3D%220%22%2F%3E%3CmxCell%20id%3D%221%22%20parent%3D%220%22%2F%3E%3CmxCell%20id%3D%222%22%20style%3D%22edgeStyle%3Dnone%3Brounded%3D0%3BorthogonalLoop%3D1%3BjettySize%3Dauto%3Bhtml%3D1%3BentryX%3D0.5%3BentryY%3D1%3BentryDx%3D0%3BentryDy%3D0%3B%22%20edge%3D%221%22%20parent%3D%221%22%3E%3CmxGeometry%20relative%3D%221%22%20as%3D%22geometry%22%3E%3CmxPoint%20x%3D%22455%22%20y%3D%22460%22%20as%3D%22sourcePoint%22%2F%3E%3CmxPoint%20x%3D%22455%22%20y%3D%22445%22%20as%3D%22targetPoint%22%2F%3E%3C%2FmxGeometry%3E%3C%2FmxCell%3E%3C%2Froot%3E%3C%2FmxGraphModel%3E&lt;/span&gt;" style="rounded=1;whiteSpace=wrap;html=1;" parent="1" vertex="1">
          <mxGeometry x="370" y="880" width="120" height="60" as="geometry" />
        </mxCell>
        <mxCell id="UBEClrOXtqQS85tNALs3-33" value="..." style="text;html=1;strokeColor=none;fillColor=none;align=center;verticalAlign=middle;whiteSpace=wrap;rounded=0;" parent="1" vertex="1">
          <mxGeometry x="360" y="960" width="60" height="30" as="geometry" />
        </mxCell>
        <mxCell id="UBEClrOXtqQS85tNALs3-35" value="First pipeline" style="shape=step;perimeter=stepPerimeter;whiteSpace=wrap;html=1;fixedSize=1;" parent="1" vertex="1">
          <mxGeometry x="130" y="590" width="280" height="40" as="geometry" />
        </mxCell>
        <mxCell id="UBEClrOXtqQS85tNALs3-36" value="Second pipeline" style="shape=step;perimeter=stepPerimeter;whiteSpace=wrap;html=1;fixedSize=1;" parent="1" vertex="1">
          <mxGeometry x="405" y="590" width="185" height="40" as="geometry" />
        </mxCell>
        <mxCell id="N-FvrxHPBgMHmvB42TJ--1" value="Object store" style="shape=cylinder3;whiteSpace=wrap;html=1;boundedLbl=1;backgroundOutline=1;size=15;" parent="1" vertex="1">
          <mxGeometry x="70" y="490" width="60" height="80" as="geometry" />
        </mxCell>
        <mxCell id="N-FvrxHPBgMHmvB42TJ--6" value="Upload" style="edgeStyle=none;rounded=0;orthogonalLoop=1;jettySize=auto;html=1;entryX=0;entryY=0;entryDx=0;entryDy=27.5;entryPerimeter=0;dashed=1;endArrow=block;endFill=1;" parent="1" source="N-FvrxHPBgMHmvB42TJ--4" target="N-FvrxHPBgMHmvB42TJ--1" edge="1">
          <mxGeometry relative="1" as="geometry" />
        </mxCell>
        <mxCell id="N-FvrxHPBgMHmvB42TJ--4" value="Local DB" style="shape=cylinder3;whiteSpace=wrap;html=1;boundedLbl=1;backgroundOutline=1;size=15;" parent="1" vertex="1">
          <mxGeometry x="-130" y="470" width="60" height="80" as="geometry" />
        </mxCell>
        <mxCell id="N-FvrxHPBgMHmvB42TJ--5" value="Actor" style="shape=umlActor;verticalLabelPosition=bottom;verticalAlign=top;html=1;outlineConnect=0;" parent="1" vertex="1">
          <mxGeometry x="-115" y="390" width="30" height="60" as="geometry" />
        </mxCell>
        <mxCell id="N-FvrxHPBgMHmvB42TJ--7" value="Coupled CFD/DEM Wrapper - AiiDA plugin" style="rounded=1;whiteSpace=wrap;html=1;verticalAlign=top;fillColor=#d5e8d4;strokeColor=#82b366;" parent="1" vertex="1">
          <mxGeometry x="869.67" y="320" width="510" height="330" as="geometry" />
        </mxCell>
        <mxCell id="N-FvrxHPBgMHmvB42TJ--11" style="edgeStyle=none;rounded=0;orthogonalLoop=1;jettySize=auto;html=1;" parent="1" source="N-FvrxHPBgMHmvB42TJ--12" target="N-FvrxHPBgMHmvB42TJ--15" edge="1">
          <mxGeometry relative="1" as="geometry" />
        </mxCell>
        <mxCell id="N-FvrxHPBgMHmvB42TJ--12" value="Aspherix&lt;br&gt;&lt;br&gt;CFD+DEM" style="rounded=1;whiteSpace=wrap;html=1;" parent="1" vertex="1">
          <mxGeometry x="1084.67" y="475" width="80" height="70" as="geometry" />
        </mxCell>
        <mxCell id="N-FvrxHPBgMHmvB42TJ--14" style="edgeStyle=none;rounded=0;orthogonalLoop=1;jettySize=auto;html=1;entryX=0;entryY=0.5;entryDx=0;entryDy=0;startArrow=classic;startFill=1;" parent="1" source="N-FvrxHPBgMHmvB42TJ--15" target="N-FvrxHPBgMHmvB42TJ--19" edge="1">
          <mxGeometry relative="1" as="geometry" />
        </mxCell>
        <mxCell id="N-FvrxHPBgMHmvB42TJ--15" value="Output&#39;" style="rounded=1;whiteSpace=wrap;html=1;" parent="1" vertex="1">
          <mxGeometry x="1174.67" y="425" width="80" height="30" as="geometry" />
        </mxCell>
        <mxCell id="N-FvrxHPBgMHmvB42TJ--16" value="Datamodel" style="text;html=1;strokeColor=none;fillColor=none;align=center;verticalAlign=middle;whiteSpace=wrap;rounded=0;" parent="1" vertex="1">
          <mxGeometry x="1179.67" y="360" width="60" height="30" as="geometry" />
        </mxCell>
        <mxCell id="N-FvrxHPBgMHmvB42TJ--18" value="OutputData" style="rounded=1;whiteSpace=wrap;html=1;" parent="1" vertex="1">
          <mxGeometry x="1174.67" y="380" width="80" height="30" as="geometry" />
        </mxCell>
        <mxCell id="N-FvrxHPBgMHmvB42TJ--19" value="Output" style="rounded=1;whiteSpace=wrap;html=1;" parent="1" vertex="1">
          <mxGeometry x="1283.67" y="425" width="80" height="30" as="geometry" />
        </mxCell>
        <mxCell id="N-FvrxHPBgMHmvB42TJ--20" value="AiiDA DataNode" style="text;html=1;strokeColor=none;fillColor=none;align=center;verticalAlign=middle;whiteSpace=wrap;rounded=0;" parent="1" vertex="1">
          <mxGeometry x="1293.67" y="395" width="60" height="30" as="geometry" />
        </mxCell>
        <mxCell id="N-FvrxHPBgMHmvB42TJ--21" style="edgeStyle=none;rounded=0;orthogonalLoop=1;jettySize=auto;html=1;" parent="1" source="N-FvrxHPBgMHmvB42TJ--23" target="N-FvrxHPBgMHmvB42TJ--12" edge="1">
          <mxGeometry relative="1" as="geometry">
            <mxPoint x="1004.6700000000001" y="440" as="targetPoint" />
          </mxGeometry>
        </mxCell>
        <mxCell id="N-FvrxHPBgMHmvB42TJ--23" value="Input" style="rounded=1;whiteSpace=wrap;html=1;" parent="1" vertex="1">
          <mxGeometry x="889.67" y="425" width="80" height="30" as="geometry" />
        </mxCell>
        <mxCell id="N-FvrxHPBgMHmvB42TJ--24" value="AiiDA DataNode" style="text;html=1;strokeColor=none;fillColor=none;align=center;verticalAlign=middle;whiteSpace=wrap;rounded=0;" parent="1" vertex="1">
          <mxGeometry x="899.67" y="395" width="60" height="30" as="geometry" />
        </mxCell>
        <mxCell id="N-FvrxHPBgMHmvB42TJ--25" value="First pipeline" style="shape=step;perimeter=stepPerimeter;whiteSpace=wrap;html=1;fixedSize=1;" parent="1" vertex="1">
          <mxGeometry x="889.67" y="590" width="280" height="40" as="geometry" />
        </mxCell>
        <mxCell id="N-FvrxHPBgMHmvB42TJ--26" value="Second pipeline" style="shape=step;perimeter=stepPerimeter;whiteSpace=wrap;html=1;fixedSize=1;" parent="1" vertex="1">
          <mxGeometry x="1164.67" y="590" width="185" height="40" as="geometry" />
        </mxCell>
        <mxCell id="N-FvrxHPBgMHmvB42TJ--37" style="edgeStyle=none;rounded=0;orthogonalLoop=1;jettySize=auto;html=1;entryX=0;entryY=0.5;entryDx=0;entryDy=0;dashed=1;startArrow=none;startFill=0;endArrow=block;endFill=1;" parent="1" source="N-FvrxHPBgMHmvB42TJ--32" target="N-FvrxHPBgMHmvB42TJ--23" edge="1">
          <mxGeometry relative="1" as="geometry" />
        </mxCell>
        <mxCell id="N-FvrxHPBgMHmvB42TJ--32" value="Input&#39;" style="rounded=1;whiteSpace=wrap;html=1;" parent="1" vertex="1">
          <mxGeometry x="770" y="427.5" width="80" height="30" as="geometry" />
        </mxCell>
        <mxCell id="N-FvrxHPBgMHmvB42TJ--33" value="Datamodel" style="text;html=1;strokeColor=none;fillColor=none;align=center;verticalAlign=middle;whiteSpace=wrap;rounded=0;" parent="1" vertex="1">
          <mxGeometry x="775" y="362.5" width="60" height="30" as="geometry" />
        </mxCell>
        <mxCell id="qvWup1unoxQv84iyTY0M-3" style="edgeStyle=none;rounded=0;orthogonalLoop=1;jettySize=auto;html=1;dashed=1;" edge="1" parent="1" source="N-FvrxHPBgMHmvB42TJ--34" target="qvWup1unoxQv84iyTY0M-1">
          <mxGeometry relative="1" as="geometry" />
        </mxCell>
        <mxCell id="qvWup1unoxQv84iyTY0M-4" value="Mappings" style="edgeLabel;html=1;align=center;verticalAlign=middle;resizable=0;points=[];" vertex="1" connectable="0" parent="qvWup1unoxQv84iyTY0M-3">
          <mxGeometry x="0.3375" relative="1" as="geometry">
            <mxPoint as="offset" />
          </mxGeometry>
        </mxCell>
        <mxCell id="N-FvrxHPBgMHmvB42TJ--34" value="InputData" style="rounded=1;whiteSpace=wrap;html=1;" parent="1" vertex="1">
          <mxGeometry x="770" y="382.5" width="80" height="30" as="geometry" />
        </mxCell>
        <mxCell id="N-FvrxHPBgMHmvB42TJ--39" value="&lt;b&gt;Transformation&amp;nbsp;&lt;br&gt;&lt;/b&gt;Expressed as an AiiDA calcfunction to ensure provenance." style="text;html=1;strokeColor=none;fillColor=none;align=center;verticalAlign=middle;whiteSpace=wrap;rounded=0;" parent="1" vertex="1">
          <mxGeometry x="610" y="450" width="180" height="65" as="geometry" />
        </mxCell>
        <mxCell id="qvWup1unoxQv84iyTY0M-1" value="Ontology" style="ellipse;whiteSpace=wrap;html=1;fillColor=#fff2cc;strokeColor=#d6b656;" vertex="1" parent="1">
          <mxGeometry x="655" y="160" width="120" height="80" as="geometry" />
        </mxCell>
      </root>
    </mxGraphModel>
  </diagram>
</mxfile>
